<?xml version="1.0" encoding="UTF-8"?>
<svg width="408px" height="48px" viewBox="0 0 408 48" version="1.1" xmlns="http://www.w3.org/2000/svg" xmlns:xlink="http://www.w3.org/1999/xlink">
    <!-- Generator: sketchtool 51.2 (57519) - http://www.bohemiancoding.com/sketch -->
    <title>5647D815-003A-4A95-B967-7DFE944F43F4</title>
    <desc>Created with sketchtool.</desc>
    <defs>
        <polygon id="path-1" points="0 2.12434783 28.4973913 2.12434783 28.4973913 47.0547826 0 47.0547826"></polygon>
        <polygon id="path-3" points="0.871521739 0.377173913 32.6432609 0.377173913 32.6432609 34.7826087 0.871521739 34.7826087"></polygon>
        <polygon id="path-5" points="1.64326087 0.377173913 33.4128261 0.377173913 33.4128261 34.7826087 1.64326087 34.7826087"></polygon>
        <polygon id="path-7" points="1.11008152 0.539347826 21.9544577 0.539347826 21.9544577 43.4782609 1.11008152 43.4782609"></polygon>
        <polygon id="path-9" points="0.782391304 0.377173913 32.5519565 0.377173913 32.5519565 34.7826087 0.782391304 34.7826087"></polygon>
        <polygon id="path-11" points="0.0160869565 0.377173913 31.7878261 0.377173913 31.7878261 34.7826087 0.0160869565 34.7826087"></polygon>
    </defs>
    <g id="Page-1" stroke="none" stroke-width="1" fill="none" fill-rule="evenodd">
        <g id="Logged-out" transform="translate(-308.000000, -150.000000)">
            <g id="LIve-Rent-Free-Logo" transform="translate(308.000000, 150.000000)">
                <g id="Group-3" transform="translate(0.000000, 0.121087)">
                    <mask id="mask-2" fill="white">
                        <use xlink:href="#path-1"></use>
                    </mask>
                    <g id="Clip-2"></g>
                    <path d="M-0.000434782609,45.643913 L-0.000434782609,3.5373913 C-0.000434782609,2.63956522 0.514782609,2.12434783 1.41043478,2.12434783 L5.90391304,2.12434783 C6.80391304,2.12434783 7.31695652,2.63956522 7.31695652,3.5373913 L7.31695652,40.1221739 L27.0865217,40.1221739 C27.9843478,40.1221739 28.4973913,40.6352174 28.4973913,41.5352174 L28.4973913,45.643913 C28.4973913,46.5417391 27.9843478,47.0547826 27.0865217,47.0547826 L1.41043478,47.0547826 C0.514782609,47.0547826 -0.000434782609,46.5417391 -0.000434782609,45.643913" id="Fill-1" fill="#005480" mask="url(#mask-2)"></path>
                </g>
                <path d="M34.14,45.765 L34.14,15.7258696 C34.14,14.8280435 34.6530435,14.3128261 35.5508696,14.3128261 L39.7878261,14.3128261 C40.6878261,14.3128261 41.2008696,14.8280435 41.2008696,15.7258696 L41.2008696,45.765 C41.2008696,46.6628261 40.6878261,47.1758696 39.7878261,47.1758696 L35.5508696,47.1758696 C34.6530435,47.1758696 34.14,46.6628261 34.14,45.765 M32.2791304,5.39108696 C32.2791304,2.43891304 34.7182609,-0.000217391304 37.6704348,-0.000217391304 C40.6226087,-0.000217391304 43.0617391,2.43891304 43.0617391,5.39108696 C43.0617391,8.34543478 40.6226087,10.7845652 37.6704348,10.7845652 C34.7182609,10.7845652 32.2791304,8.34543478 32.2791304,5.39108696" id="Fill-4" fill="#005480"></path>
                <path d="M73.0326087,14.3132609 L77.9108696,14.3132609 C78.9369565,14.3132609 79.3847826,14.9545652 79.0021739,15.9828261 L66.9347826,46.085 C66.6130435,46.7893478 66.1,47.1763043 65.3304348,47.1763043 L60.6456522,47.1763043 C59.873913,47.1763043 59.3608696,46.7893478 59.0391304,46.085 L46.9717391,15.9828261 C46.5869565,14.9545652 47.0369565,14.3132609 48.0652174,14.3132609 L52.9413043,14.3132609 C53.7130435,14.3132609 54.3543478,14.6980435 54.6108696,15.4023913 L62.9543478,37.035 L71.3630435,15.4023913 C71.6195652,14.6980435 72.2630435,14.3132609 73.0326087,14.3132609" id="Fill-6" fill="#005480"></path>
                <g id="Group-10" transform="translate(80.434783, 13.164565)">
                    <mask id="mask-4" fill="white">
                        <use xlink:href="#path-3"></use>
                    </mask>
                    <g id="Clip-9"></g>
                    <path d="M7.86717391,16.3619565 C7.86717391,17.5815217 7.99543478,18.6706522 8.25195652,19.7619565 L22.9497826,9.81413043 C21.6041304,7.50326087 19.0997826,6.925 17.1106522,6.925 C11.591087,6.925 7.86717391,10.8402174 7.86717391,16.3619565 M30.9736957,22.2032609 C31.8736957,21.2380435 32.6432609,21.4945652 32.6432609,22.7793478 L32.6432609,28.4293478 C32.6432609,29.1336957 32.4519565,29.6467391 31.8736957,30.1619565 C28.9845652,32.601087 24.2997826,34.7836957 18.5867391,34.7836957 C7.9323913,34.7836957 0.871521739,27.9793478 0.871521739,16.425 C0.871521739,7.11847826 7.86717391,0.377173913 17.1106522,0.377173913 C23.2715217,0.377173913 28.791087,2.81847826 31.5519565,9.81413043 C31.8736957,10.648913 31.6802174,11.225 30.9736957,11.7402174 L11.2693478,25.1532609 C13.2584783,26.951087 15.8280435,27.9141304 18.8432609,27.9141304 C23.7867391,27.9141304 27.8302174,25.6032609 30.9736957,22.2032609" id="Fill-8" fill="#005480" mask="url(#mask-4)"></path>
                </g>
                <path d="M169.291957,45.4443478 C170.061522,46.34 169.741957,47.1769565 168.522391,47.1769565 L162.233261,47.1769565 C161.526739,47.1769565 160.948478,46.9834783 160.498478,46.4052174 L145.287609,28.4986957 C144.837609,27.9182609 144.646304,27.4704348 144.646304,26.763913 L144.646304,23.6834783 C144.646304,22.7856522 145.159348,22.2726087 146.057174,22.2726087 L151.320217,22.2726087 C155.107174,22.2726087 158.378913,19.9617391 158.378913,15.8530435 C158.378913,11.7465217 155.04413,9.37043478 151.320217,9.37043478 L142.076739,9.37043478 L142.076739,45.763913 C142.076739,46.663913 141.56587,47.1769565 140.66587,47.1769565 L136.172391,47.1769565 C135.274565,47.1769565 134.761522,46.663913 134.761522,45.763913 L134.761522,3.6573913 C134.761522,2.75956522 135.274565,2.24652174 136.172391,2.24652174 L151.320217,2.24652174 C159.857174,2.24652174 165.891957,7.06173913 165.891957,15.8530435 C165.891957,23.363913 161.591957,27.9182609 154.978913,29.0769565 L169.291957,45.4443478 Z" id="Fill-11" fill="#005480"></path>
                <g id="Group-15" transform="translate(169.565217, 13.164565)">
                    <mask id="mask-6" fill="white">
                        <use xlink:href="#path-5"></use>
                    </mask>
                    <g id="Clip-14"></g>
                    <path d="M8.63891304,16.3619565 C8.63891304,17.5815217 8.76717391,18.6706522 9.02369565,19.7619565 L23.7215217,9.81413043 C22.3758696,7.50326087 19.8715217,6.925 17.8823913,6.925 C12.3628261,6.925 8.63891304,10.8402174 8.63891304,16.3619565 M31.7454348,22.2032609 C32.6454348,21.2380435 33.4128261,21.4945652 33.4128261,22.7793478 L33.4128261,28.4293478 C33.4128261,29.1336957 33.2215217,29.6467391 32.6454348,30.1619565 C29.7563043,32.601087 25.0693478,34.7836957 19.3584783,34.7836957 C8.70195652,34.7836957 1.64326087,27.9793478 1.64326087,16.425 C1.64326087,7.11847826 8.63891304,0.377173913 17.8823913,0.377173913 C24.0432609,0.377173913 29.5628261,2.81847826 32.3236957,9.81413043 C32.6454348,10.648913 32.4519565,11.225 31.7454348,11.7402174 L12.041087,25.1532609 C14.0302174,26.951087 16.5997826,27.9141304 19.615,27.9141304 C24.5584783,27.9141304 28.6019565,25.6032609 31.7454348,22.2032609" id="Fill-13" fill="#005480" mask="url(#mask-6)"></path>
                </g>
                <path d="M238.081087,26.3165217 L238.081087,45.7643478 C238.081087,46.6621739 237.568043,47.1773913 236.670217,47.1773913 L232.433261,47.1773913 C231.533261,47.1773913 231.020217,46.6621739 231.020217,45.7643478 L231.020217,27.2143478 C231.020217,22.4013043 228.259348,20.1534783 224.024565,20.1534783 C220.428913,20.1534783 217.605,22.0143478 216.06587,25.3534783 L216.06587,45.7643478 C216.06587,46.6621739 215.552826,47.1773913 214.652826,47.1773913 L210.41587,47.1773913 C209.518043,47.1773913 209.005,46.6621739 209.005,45.7643478 L209.005,15.7252174 C209.005,14.8273913 209.518043,14.3143478 210.41587,14.3143478 L214.587609,14.3143478 C215.487609,14.3143478 216.002826,14.8273913 216.002826,15.7252174 L216.002826,17.6513043 C217.798478,15.2121739 221.135435,13.5426087 225.24413,13.5426087 C233.26587,13.5426087 238.081087,18.2926087 238.081087,26.3165217" id="Fill-16" fill="#005480"></path>
                <g id="Group-20" transform="translate(241.304348, 4.468913)">
                    <mask id="mask-8" fill="white">
                        <use xlink:href="#path-7"></use>
                    </mask>
                    <g id="Clip-19"></g>
                    <path d="M17.3080435,36.8676087 C18.0776087,36.8676087 19.1058696,36.8023913 20.2602174,36.611087 C21.2232609,36.4176087 21.8015217,36.8676087 21.8015217,37.8284783 L21.8015217,41.4241304 C21.8015217,42.2567391 21.4167391,42.7719565 20.5819565,42.9654348 C19.168913,43.3480435 17.7580435,43.4784783 16.2819565,43.4784783 C9.8623913,43.4784783 6.26891304,40.011087 6.26891304,33.7219565 L6.26891304,17.2241304 L3.38195652,17.7393478 C2.48195652,17.8676087 1.84065217,17.4828261 1.7123913,16.585 L1.13413043,13.1176087 C1.00586957,12.2197826 1.39065217,11.5763043 2.28847826,11.4480435 L6.26891304,10.7436957 L6.26891304,1.95021739 C6.26891304,1.05021739 6.78195652,0.539347826 7.67978261,0.539347826 L11.918913,0.539347826 C12.8167391,0.539347826 13.3297826,1.05021739 13.3297826,1.95021739 L13.3297826,9.52413043 L19.6841304,8.36978261 C20.5819565,8.17630435 21.2232609,8.62630435 21.3515217,9.52413043 L21.9297826,12.9893478 C22.0602174,13.8893478 21.6732609,14.5306522 20.7754348,14.658913 L13.3297826,16.0067391 L13.3297826,32.758913 C13.3297826,35.5806522 14.7406522,36.8676087 17.3080435,36.8676087" id="Fill-18" fill="#005480" mask="url(#mask-8)"></path>
                </g>
                <path d="M313.803043,9.17782609 L293.774783,9.17782609 L293.774783,20.603913 C295.059565,20.2191304 296.537826,20.0256522 298.076957,20.0256522 C300.12913,20.0256522 301.542174,20.4104348 302.89,20.7973913 C304.046522,21.1169565 305.20087,21.4386957 306.742174,21.4386957 C308.411739,21.4386957 310.013913,21.2452174 312.068261,20.6691304 C313.033478,20.3473913 313.672609,20.7973913 313.672609,21.8213043 L313.672609,25.8017391 C313.672609,26.5734783 313.29,27.1517391 312.518261,27.4082609 C310.85087,27.9191304 308.987826,28.2430435 306.742174,28.2430435 C304.622609,28.2430435 303.342174,27.9191304 302.120435,27.5365217 C300.966087,27.1517391 299.872609,26.9582609 298.203043,26.9582609 C296.27913,26.9582609 294.868261,27.2147826 293.774783,27.856087 L293.774783,45.7647826 C293.774783,46.6626087 293.263913,47.1756522 292.363913,47.1756522 L287.870435,47.1756522 C286.972609,47.1756522 286.459565,46.6626087 286.459565,45.7647826 L286.459565,3.65826087 C286.459565,2.76043478 286.972609,2.2473913 287.870435,2.2473913 L313.803043,2.2473913 C314.70087,2.2473913 315.213913,2.76043478 315.213913,3.65826087 L315.213913,7.76695652 C315.213913,8.66478261 314.70087,9.17782609 313.803043,9.17782609" id="Fill-21" fill="#005480"></path>
                <path d="M318.029783,45.765 L318.029783,15.7258696 C318.029783,14.8280435 318.542826,14.3128261 319.440652,14.3128261 L323.677609,14.3128261 C324.577609,14.3128261 325.090652,14.8280435 325.090652,15.7258696 L325.090652,17.715 C326.629783,15.1497826 329.840652,13.5432609 333.753696,13.5432609 C334.781957,13.5432609 335.679783,13.6063043 336.451522,13.7997826 C337.28413,13.9932609 337.60587,14.6345652 337.60587,15.4041304 L337.60587,19.7041304 C337.60587,20.6693478 337.027609,21.1171739 336.064565,20.9258696 C335.168913,20.7323913 334.268913,20.6041304 333.43413,20.6041304 C328.749348,20.6041304 326.566739,23.2997826 325.090652,25.8671739 L325.090652,45.765 C325.090652,46.6628261 324.577609,47.1758696 323.677609,47.1758696 L319.440652,47.1758696 C318.542826,47.1758696 318.029783,46.6628261 318.029783,45.765" id="Fill-23" fill="#005480"></path>
                <g id="Group-27" transform="translate(339.130435, 13.164565)">
                    <mask id="mask-10" fill="white">
                        <use xlink:href="#path-9"></use>
                    </mask>
                    <g id="Clip-26"></g>
                    <path d="M7.77804348,16.3619565 C7.77804348,17.5815217 7.90630435,18.6706522 8.16282609,19.7619565 L22.8606522,9.81413043 C21.515,7.50326087 19.0106522,6.925 17.0215217,6.925 C11.5019565,6.925 7.77804348,10.8402174 7.77804348,16.3619565 M30.8845652,22.2032609 C31.7845652,21.2380435 32.5519565,21.4945652 32.5519565,22.7793478 L32.5519565,28.4293478 C32.5519565,29.1336957 32.3628261,29.6467391 31.7845652,30.1619565 C28.8954348,32.601087 24.2106522,34.7836957 18.4976087,34.7836957 C7.84108696,34.7836957 0.782391304,27.9793478 0.782391304,16.425 C0.782391304,7.11847826 7.77804348,0.377173913 17.0215217,0.377173913 C23.1823913,0.377173913 28.7019565,2.81847826 31.465,9.81413043 C31.7845652,10.648913 31.591087,11.225 30.8845652,11.7402174 L11.1802174,25.1532609 C13.1693478,26.951087 15.738913,27.9141304 18.7541304,27.9141304 C23.6976087,27.9141304 27.741087,25.6032609 30.8845652,22.2032609" id="Fill-25" fill="#005480" mask="url(#mask-10)"></path>
                </g>
                <g id="Group-30" transform="translate(376.086957, 13.164565)">
                    <mask id="mask-12" fill="white">
                        <use xlink:href="#path-11"></use>
                    </mask>
                    <g id="Clip-29"></g>
                    <path d="M7.01173913,16.3619565 C7.01173913,17.5815217 7.14217391,18.6706522 7.39869565,19.7619565 L22.0943478,9.81413043 C20.7486957,7.50326087 18.2443478,6.925 16.2552174,6.925 C10.7356522,6.925 7.01173913,10.8402174 7.01173913,16.3619565 M30.1204348,22.2032609 C31.0182609,21.2380435 31.7878261,21.4945652 31.7878261,22.7793478 L31.7878261,28.4293478 C31.7878261,29.1336957 31.5965217,29.6467391 31.0182609,30.1619565 C28.1291304,32.601087 23.4443478,34.7836957 17.7313043,34.7836957 C7.07478261,34.7836957 0.0160869565,27.9793478 0.0160869565,16.425 C0.0160869565,7.11847826 7.01173913,0.377173913 16.2552174,0.377173913 C22.4182609,0.377173913 27.9378261,2.81847826 30.6965217,9.81413043 C31.0182609,10.648913 30.8247826,11.225 30.1204348,11.7402174 L10.413913,25.1532609 C12.4030435,26.951087 14.9726087,27.9141304 17.9878261,27.9141304 C22.9313043,27.9141304 26.9747826,25.6032609 30.1204348,22.2032609" id="Fill-28" fill="#005480" mask="url(#mask-12)"></path>
                </g>
            </g>
        </g>
    </g>
</svg>