<svg id="Layer_1" data-name="Layer 1" xmlns="http://www.w3.org/2000/svg" viewBox="0 0 633.09 633.09"><defs><style>.cls-1{fill:#005480}</style></defs><path class="cls-1" d="M516.55 872.09h-.06a316.55 316.55 0 010-633.09h.06a316.55 316.55 0 01223.79 540.42 314.48 314.48 0 01-223.79 92.67zm0-613.81a297.27 297.27 0 00-.06 594.53h.06a295.31 295.31 0 00210.16-87A297.27 297.27 0 00516.6 258.28z" transform="translate(-200 -239)"/><path class="cls-1" d="M785.41 555.33h-15.9a9.8 9.8 0 110-19.59h15.9a9.8 9.8 0 010 19.59zM518.23 304.86a9.79 9.79 0 01-9.79-9.8v-16.19a9.79 9.79 0 019.79-9.79 9.79 9.79 0 019.79 9.79v16.2a9.79 9.79 0 01-9.79 9.79zm0 535.65a9.79 9.79 0 01-9.79-9.79v-16.2a9.79 9.79 0 019.79-9.79 9.79 9.79 0 019.79 9.79v16.2a9.79 9.79 0 01-9.79 9.79zM258.66 555.33h-16.85a9.8 9.8 0 010-19.59h16.86a9.8 9.8 0 110 19.59zm418.09-182.75a9.79 9.79 0 01-7-16.59l8.72-9a9.79 9.79 0 1114.1 13.59l-8.72 9a9.73 9.73 0 01-7.1 3zm-340.86 0a9.73 9.73 0 01-7.05-3l-8.72-9a9.79 9.79 0 1114.1-13.58l8.72 9a9.79 9.79 0 01-7.05 16.59zm379.02 392.98a9.73 9.73 0 01-7-3l-8.91-9.17a9.8 9.8 0 1114.11-13.59L722 749a9.79 9.79 0 01-7.05 16.59zm-366.3 17.85a9.79 9.79 0 01-7.05-16.59l8.71-9a9.79 9.79 0 0114.1 13.59l-8.71 9a9.75 9.75 0 01-7.05 3zm22.07-297.6v-57.12a2.26 2.26 0 012-2.33l36-7.65c1.24-.26 2 .28 2 1.5v5.58a2.28 2.28 0 01-2 2.33L380.83 434v15.67l22.43-4.77c1.24-.26 2 .28 2 1.5v5.6a2.28 2.28 0 01-2 2.33l-22.43 4.76v17.07l27.77-5.9c1.24-.27 2 .28 2 1.5v5.57a2.27 2.27 0 01-2 2.33l-36 7.64c-1.21.27-1.92-.3-1.92-1.49zm92.13-78.62l7.29-1.55c1.43-.3 2 .35 1.52 1.86l-22.08 62a2.9 2.9 0 01-2.31 2l-7 1.47c-1.06.23-1.95 0-2.31-1l-22.07-52.6c-.54-1.28.08-2.2 1.51-2.5l7.3-1.55a1.73 1.73 0 012.22 1.09l16.83 40.74 16.82-47.89a2.89 2.89 0 012.28-2.07zm16.46 55.53v-57.11a2.26 2.26 0 012-2.33l36-7.65c1.25-.26 2 .28 2 1.5v5.57a2.27 2.27 0 01-2 2.34l-27.77 5.9v15.67l22.43-4.77c1.25-.26 2 .28 2 1.5v5.57a2.26 2.26 0 01-2 2.33L489.42 436v17.07l27.77-5.91c1.25-.26 2 .28 2 1.5v5.58a2.27 2.27 0 01-2 2.33l-36 7.64c-1.19.28-1.92-.27-1.92-1.49zM563 445.7l-17.62-19.24-6.68 1.42v22.2a2.27 2.27 0 01-2 2.34l-6.23 1.32c-1.24.26-2-.28-2-1.5v-57.12a2.28 2.28 0 012-2.33l19.76-4.2c13.18-2.8 21.46 2.58 21.46 13.9 0 9.23-5.43 16.74-14.6 20.78l18 18.64c1 1 .44 2.26-1.16 2.6l-8.54 1.81a2.24 2.24 0 01-2.39-.62zm-24.3-27.22l11.6-2.48c6.77-1.44 11-5.83 11-11.31s-4.27-8.15-11-6.71l-11.57 2.46zM618.93 374l7-1.48c1.51-.32 2 .52 1.33 2l-20.83 40.21v21a2.27 2.27 0 01-2 2.33l-6.23 1.32c-1.24.26-2-.28-2-1.5v-21l-20.83-31.36c-.72-1.15-.18-2.22 1.33-2.55l6.94-1.47a2.16 2.16 0 012.41.79l15.22 23.24 15.22-29.71a3.45 3.45 0 012.44-1.82z" transform="translate(-200 -239)"/><path d="M734.59 560.29a57.09 57.09 0 007.07-27.48c0-16.08-6-26.48-12.31-32.94a29 29 0 003.27-13.52V474a28.45 28.45 0 00-16-25.81c-.38-.18-.76-.36-1.14-.52a60.15 60.15 0 00-23.75-4.67 82.55 82.55 0 00-17.11 1.91 71.71 71.71 0 00-32 15.41 27.25 27.25 0 00-13.37-3.45 29.31 29.31 0 00-6.09.64l-9.73 2.07a28.64 28.64 0 00-21.2 18.42 27.65 27.65 0 00-20.42-8.93 30.66 30.66 0 00-6.34.68L555.05 472a29.12 29.12 0 00-11.68 5.37 27.9 27.9 0 00-6.71-.81 29.32 29.32 0 00-6.09.65l-9.73 2.06A29.18 29.18 0 00509 484.7a27.83 27.83 0 00-6.58-.78 29.19 29.19 0 00-6.07.64l-10.85 2.31a29.64 29.64 0 00-20.66 15.9l-10.49 20-6.45-9.57a27.77 27.77 0 00-23.36-12.7 30.73 30.73 0 00-6.34.68l-10.84 2.31a28.6 28.6 0 00-22.86 28.16v5.13c-8.3-12.37-22.61-19.88-40.23-19.88a71.84 71.84 0 00-14.91 1.64 74.56 74.56 0 00-35.53 18.57l-.36.34a30.09 30.09 0 00-9.22 21.76v10.15a27.06 27.06 0 0014.05 24.19v4.25a29.75 29.75 0 00.24 3.81 27.7 27.7 0 00-15.26 25.24v10.85a28.72 28.72 0 005.16 16.51 29.2 29.2 0 00-7 19.16V682c0 15.23 11.66 27.16 26.55 27.16a27.56 27.56 0 008.72-1.43 51.84 51.84 0 0031.35 10.54 60.26 60.26 0 0012.52-1.37c15-3.18 27.63-11.14 38.58-24.29a51.37 51.37 0 0028.71 8.7 60.33 60.33 0 0012.52-1.37c15-3.18 27.62-11.14 38.58-24.3a51.36 51.36 0 0028.71 8.71 60.4 60.4 0 0012.54-1.35c15-3.19 27.62-11.15 38.58-24.3a51.34 51.34 0 0028.7 8.7A60.26 60.26 0 00600 666c15-3.18 27.63-11.14 38.58-24.29a51.39 51.39 0 0028.71 8.7 60.26 60.26 0 0012.54-1.41c15.84-3.37 29.07-12.08 40.46-26.62.31-.4.59-.75.85-1 15.4-.14 27.44-12.4 27.44-28v-8.68a27.7 27.7 0 00-13.99-24.41z" transform="translate(-200 -239)" fill="#14c8f6"/><path d="M370.23 605.49c0 18.07-13.63 32.37-35.32 37-9.87 2.1-17.38 1-24.61-2.14a3.07 3.07 0 01-1.95-3.2v-10.86c0-2.65 1.67-3.7 3.62-2.3a31.84 31.84 0 0022.94 4.16c11.82-2.51 19.19-9.92 19.19-19.23 0-9.74-6.26-13.83-21.69-10.55l-6 1.27c-1.95.41-3.06-.46-3.06-2.41v-7.51a3.57 3.57 0 013.06-3.7l6-1.27c13.76-2.93 18.91-8.89 18.91-17.79 0-8.34-6.54-12.38-16.69-10.22-8.2 1.75-15.43 6.34-21.69 12.82-1.94 2.22-3.61 1.88-3.61-.77v-10.14a5.28 5.28 0 011.81-4 49.9 49.9 0 0123.49-12.23c19.89-4.22 32.82 4 32.82 21.11a27.42 27.42 0 01-11 22.08c9.19 2.64 13.78 10.39 13.78 19.88zm39.34 16.66v-91.07a3.58 3.58 0 013.06-3.71l10.85-2.3c1.67-.36 2.78 0 3.61 1.31l30 44.51 30-57.27a4.78 4.78 0 013.61-2.86l10.85-2.3c1.95-.42 3.06.46 3.06 2.41v91.07a3.57 3.57 0 01-3.06 3.7l-9.73 2.07c-1.95.42-3.06-.46-3.06-2.41v-65.9L459.35 595c-1.25 2.36-2.92 2.57-4.17.89l-29.76-43v65.9a3.57 3.57 0 01-3.06 3.71l-9.73 2.07c-1.95.43-3.06-.47-3.06-2.42zM523 598v-91.17a3.57 3.57 0 013.05-3.71l9.74-2.07c1.95-.41 3.06.46 3.06 2.41v91.21a3.57 3.57 0 01-3.06 3.7l-9.74 2.07c-1.91.42-3.05-.44-3.05-2.44zm95.69-114.56l9.73-2.07c2-.42 3.06.46 3.06 2.4V575a3.57 3.57 0 01-3.06 3.71l-10.42 2.2c-1.67.35-2.78 0-3.61-1.32l-41.3-59.21v67a3.58 3.58 0 01-3.06 3.71l-9.73 2.06c-1.95.42-3.06-.46-3.06-2.4v-91.19a3.57 3.57 0 013.06-3.71l10.43-2.22c1.66-.35 2.78 0 3.61 1.32L615.63 554v-66.86a3.57 3.57 0 013.06-3.7zm29.05 81.83a3.91 3.91 0 01-1.53-3.43v-14.32c0-2.78 1.81-3.86 3.62-2 8.48 8.35 18.35 11.39 30.31 8.85 12.51-2.66 20.72-10 20.72-18.72 0-7.65-5.29-10.7-16.83-10l-8.76.47c-19.88 1-28.36-5.65-28.36-22.34s13.21-30.75 33-34.95c10.57-2.24 18.91-1.65 25.86 1.32a3.37 3.37 0 011.95 3.34v12.37c0 2.65-1.67 3.7-3.75 2.33-7-4.92-14-6.47-24.2-4.31s-17 8.75-17 16.53c0 6.82 4.59 9.88 15.29 9.68l8.76-.19c20.44-.45 29.9 6.58 29.9 22.43 0 17.79-14.32 32.38-36.57 37.11-13.78 2.85-25.04.8-32.41-4.17zm73.47 16.46a26.05 26.05 0 00-6.67.58c-9.6 2-17.8 7.12-26 17.62-5.42 6.86-8.76 9.37-13.91 10.47s-8.48 0-13.9-4.56c-8.18-7-16.37-8.6-25.94-6.58h-.06c-9.59 2-17.8 7.12-26 17.63-5.42 6.85-8.76 9.37-13.9 10.46s-8.48 0-13.91-4.55c-8.2-7-16.4-8.61-26-6.57-9.58 2-17.77 7.12-26 17.61-5.42 6.85-8.76 9.37-13.9 10.46s-8.48 0-13.9-4.55c-8.19-7-16.37-8.6-25.94-6.58h-.06c-9.6 2-17.8 7.12-26 17.62-5.43 6.86-8.76 9.37-13.91 10.47s-8.48 0-13.9-4.56c-8.19-7-16.37-8.6-25.94-6.58h-.06c-9.59 2-17.8 7.12-26 17.63-5.42 6.85-8.76 9.37-13.9 10.46s-8.49 0-13.91-4.55c-8.2-7-16.4-8.61-26-6.57a30.3 30.3 0 00-6.67 2.25 4.26 4.26 0 00-2.37 4V682c0 2.22 1.4 2.76 3.48 1.48a18 18 0 015.56-2.15c5.15-1.09 8.48 0 13.91 4.55 8.2 7 16.4 8.61 26 6.57s17.79-7.12 26-17.62c3.65-4.61 6.35-7.26 9.3-8.83l.23-.12.38-.19a18.25 18.25 0 012.48-.94l.18-.05a18.451 18.451 0 012.61-.55h.2a13.64 13.64 0 012.46-.11h.61c3 .32 5.66 1.81 9.31 4.88 8.21 7 16.41 8.61 26 6.57s17.8-7.12 26-17.62c3.66-4.62 6.36-7.27 9.31-8.84a1.55 1.55 0 00.22-.12l.39-.18a18.13 18.13 0 012.47-.94h.18c.44-.13.88-.24 1.34-.34.44-.1.86-.17 1.28-.23h.21a15.75 15.75 0 012.46-.11h.61c3 .32 5.66 1.81 9.31 4.87 8.2 7 16.41 8.61 26 6.57s17.8-7.12 26-17.62c3.66-4.62 6.37-7.26 9.32-8.84l.21-.11.39-.19a17.94 17.94 0 012.46-.93l.2-.06a18.96 18.96 0 012.64-.55h.18a14.73 14.73 0 012.47-.11h.63c2.94.32 5.64 1.82 9.29 4.87 8.2 7 16.4 8.61 26 6.57s17.79-7.12 26-17.62c3.64-4.61 6.35-7.25 9.29-8.83l.24-.12.38-.19a18.25 18.25 0 012.48-.94l.17-.05c.44-.12.89-.24 1.34-.33.43-.09.86-.17 1.28-.22h.2a13.64 13.64 0 012.46-.11h.61c2.95.32 5.66 1.81 9.31 4.88 8.21 7 16.41 8.61 26 6.57s17.8-7.12 26-17.62c5.43-6.86 8.76-9.37 13.91-10.47a14.57 14.57 0 015.56-.21c2.08.39 3.48-.74 3.48-3v-8.62c.13-1.7-.57-2.77-2.24-2.97z" transform="translate(-200 -239)" fill="#fff"/></svg>