<svg id="Layer_1" data-name="Layer 1" xmlns="http://www.w3.org/2000/svg" viewBox="0 0 822.12 540.89"><defs><style>.cls-1{fill:#005480}.cls-3{fill:#fff}.cls-4{fill:none}</style></defs><path class="cls-1" d="M708.1 514.91zm0 0zM693.26 551l1.2-.56zm46.06-47.48a18.93 18.93 0 00-1.52-1.3 20.33 20.33 0 00-14.16-4.17h-.08a19.09 19.09 0 00-2.58.37c-.62.14-1.21.3-1.73.46a.08.08 0 00-.07 0l-.23.07c-.28.58-.58 1.15-.89 1.72a70.63 70.63 0 01-10 14.19c-1 1.08-2 2.13-3 3.13a73.68 73.68 0 01-20 14q-.91.44-1.83.84a76 76 0 01-14.66 4.82c-1 .23-2.1.43-3.15.62a77.21 77.21 0 01-8.48 1c-1.36.08-2.73.14-4.1.14a75.64 75.64 0 01-11.1-.74l-1.71-.26c-1.37-.22-2.74-.48-4.12-.79-1.93-.42-3.88-.93-5.82-1.51s-3.87-1.26-5.75-2a76.56 76.56 0 01-38.21-32.72 115.75 115.75 0 01-20.3 6.63A97.09 97.09 0 00624 556.27c.89.28 1.81.54 2.72.78a97.87 97.87 0 0012.57 2.54c1.49.21 3 .39 4.5.51q3.06.27 6.11.34 3.9.1 7.75-.12c1.47-.07 2.94-.19 4.39-.33a94.32 94.32 0 0012-2c.59-.13 1.18-.27 1.76-.42a94.8 94.8 0 0013.44-4.43 91.61 91.61 0 005.45-2.45 95.3 95.3 0 0020.83-13.75 92.56 92.56 0 0011.05-11.34v-.05a91.18 91.18 0 009.29-13.63 91.78 91.78 0 003.94-7.95zm-31 11.4zm-.27 0zm-13.61 35.55l-1.2.56 1.2-.57zm52.77-75.2c-.1 1.1-.23 2.2-.37 3.3 0 .19-.05.39-.08.58-.17 1.32-.38 2.63-.62 3.94q-.61 3.44-1.5 6.85c-.31 1.2-.65 2.39-1 3.59-.31 1-.64 2-1 3a54.73 54.73 0 00-18.72-10.52c.19-.67.37-1.35.53-2a67.71 67.71 0 001.83-10.61c.11-1.13.2-2.24.25-3.36v-.84a69.42 69.42 0 00-.41-10.51c0-.56-.12-1.12-.2-1.68a70.15 70.15 0 00-2.75-12.26 72.4 72.4 0 0122.42 2.82 92.1 92.1 0 011.96 15.43c0 .81.05 1.61.06 2.42a88.35 88.35 0 01-.4 9.85z" transform="translate(-117.58 -326.73)"/><path d="M924.9 619.4L837.13 712a54 54 0 01-20.69 13.57c-.33.13-.67.24-1 .36a59.39 59.39 0 01-6.06 1.68A54.06 54.06 0 01760.8 714L674 631.66a54.21 54.21 0 01-14.32-55.57A86.67 86.67 0 01654 569a27.82 27.82 0 01-4.1-8.55q3.9.1 7.75-.12c1.47-.07 2.94-.19 4.39-.33a94.32 94.32 0 0012-2c.59-.13 1.18-.27 1.76-.42a94.8 94.8 0 0013.44-4.43 91.61 91.61 0 005.45-2.45 95.3 95.3 0 0020.83-13.75l3.84 3.65 10.87 10.31c.63.6 1.24 1.22 1.8 1.87l28.1-29.66c-.66-.54-1.32-1.1-1.95-1.7l-10.86-10.32-7.52-7.1-.47-.44a18.93 18.93 0 00-1.52-1.3 20.33 20.33 0 00-14.16-4.17h-.08a19.09 19.09 0 00-2.58.37c-.62.14-1.21.3-1.73.46a.08.08 0 00-.07 0l-.23.07-.2.07a20 20 0 00-8.1 5.21 20.2 20.2 0 00-5.6 13.73 73.68 73.68 0 01-20 14q-.91.44-1.83.84a76 76 0 01-14.66 4.82c-1 .23-2.1.43-3.15.62a77.21 77.21 0 01-8.48 1c-1.36.08-2.73.14-4.1.14a75.64 75.64 0 01-11.1-.74l-1.55-.38A87.46 87.46 0 01697 435.44l2-.64c2.48-.78 5.09-1.48 7.77-2.06l1-.22a89.89 89.89 0 019.64-1.4l.69-.07a85.26 85.26 0 0111.63-.17 86.41 86.41 0 0111.37 1.31 87.49 87.49 0 0138.42 17.31c.62-.24 1.25-.47 1.87-.68a56.83 56.83 0 016-1.68A54 54 0 01836 460.72l86.86 82.33a54 54 0 012 76.35z" transform="translate(-117.58 -326.73)" fill="#14c8f6"/><path class="cls-3" d="M694.46 550.44l-1.2.56zm212.8 52.24l-87.75 92.57a29.68 29.68 0 01-11.93 7.67 32.44 32.44 0 01-3.32.92 29.74 29.74 0 01-26.75-7.46L690.67 614a29.69 29.69 0 01-1.11-42l.27-.31-8-7.59a60.18 60.18 0 01-6-6.58 94.8 94.8 0 0013.44-4.43 91.61 91.61 0 005.45-2.45l7.95 7.53 6.75 6.41a9.32 9.32 0 012.91 6.51 9.12 9.12 0 01-.38 2.85 9.24 9.24 0 01-2.17 3.8l-4.37 4.62-2.3 2.43a11.1 11.1 0 00.41 15.66l86.84 82.34a11.1 11.1 0 0015.67-.43l87.76-92.57a11.08 11.08 0 00-.41-15.65l-86.86-82.35a11.11 11.11 0 00-15.65.43l-3.59 3.78-3.28 3.53c-.11.11-.21.22-.31.31l-.08.08a9.16 9.16 0 01-3.36 2 9 9 0 01-1.35.37 9.35 9.35 0 01-1.4.14 9.24 9.24 0 01-1.18-.05 9.38 9.38 0 01-3.85-1.27 8.94 8.94 0 01-.95-.66 7.44 7.44 0 01-.68-.58l-6.84-6.4-8-7.59-.76-.7-.77-.68-.63-.54-1-.77-.17-.13c-.38-.3-.76-.58-1.15-.86a39.5 39.5 0 00-3.59-2.35c-.41-.25-.82-.48-1.24-.7s-.7-.38-1.06-.56c-.52-.27-1.05-.53-1.58-.77s-1.13-.51-1.71-.75a44.29 44.29 0 00-18.61-3.35c-.73 0-1.46 0-2.19.11a43.71 43.71 0 00-5.79.86c-1.37.3-2.68.65-3.9 1a44.56 44.56 0 00-28.71 57.18 76 76 0 01-14.66 4.82c-1 .23-2.1.43-3.15.62A63.19 63.19 0 01706.31 458c1.73-.56 3.63-1 5.57-1.47a60.08 60.08 0 018.2-1.22h.63a63.25 63.25 0 0148.12 17.15l8 7.58.45-.47a29.72 29.72 0 0142-1.13l86.84 82.35a29.69 29.69 0 011.11 42z" transform="translate(-117.58 -326.73)"/><path class="cls-4" d="M572.06 364.19A100.28 100.28 0 00444.7 513.51a10.51 10.51 0 01.9 11.46l-124.67 228.1 13.73 46.64 45.95-13.55 12.52-23-10.56-35.85a10.52 10.52 0 017.11-13l33.11-9.75 13.95-25.6-9.56-32.42a10.5 10.5 0 017.11-13l29.71-8.82 37.2-67.6a10.54 10.54 0 0110.5-5.36 100.28 100.28 0 0060.35-187.57z" transform="translate(-117.58 -326.73)"/><path class="cls-1" d="M640.42 418A121.28 121.28 0 10424 520.72l-123.6 226.1a10.5 10.5 0 00-.86 8l17.94 60.89a10.5 10.5 0 0013 7.11l60.19-17.74A10.51 10.51 0 00397 800l16.69-30.62a10.52 10.52 0 00.85-8l-8.82-29.95 27.2-8a10.5 10.5 0 006.26-5.05l18.11-33.24a10.52 10.52 0 00.86-8l-7.82-26.51 23.79-7a10.5 10.5 0 006.24-5l36-65.35A121.31 121.31 0 00640.42 418zm-28.29 82.2a100.28 100.28 0 01-100.42 51.56 10.54 10.54 0 00-10.5 5.36L464 624.72l-29.72 8.75a10.5 10.5 0 00-7.11 13l9.56 32.42-13.95 25.6-33.11 9.75a10.52 10.52 0 00-7.11 13l10.56 35.85-12.52 23-45.95 13.55L320.92 753 445.6 525a10.51 10.51 0 00-.9-11.46 100.28 100.28 0 11167.43-13.34z" transform="translate(-117.58 -326.73)"/><path class="cls-4" d="M589.65 756.19a10.52 10.52 0 01-2.8-14.6l19.4-28.59-5.48-28.63-28-19a10.53 10.53 0 01-2.79-14.6l17.41-25.64-14.17-75.84a10.51 10.51 0 014.71-10.8 100.28 100.28 0 10-76.05 13 10.51 10.51 0 018 8.28l48.47 255.4 40.22 27.3 26.9-39.63-4.91-25.71z" transform="translate(-117.58 -326.73)"/><path class="cls-1" d="M646.93 803.21L640.38 769a10.51 10.51 0 00-4.42-6.72l-25.82-17.52 15.94-23.47a10.49 10.49 0 001.62-7.87l-7.11-37.19a10.51 10.51 0 00-4.42-6.72l-22.87-15.57 13.93-20.53a10.48 10.48 0 001.64-7.83l-13.7-73.31a121.29 121.29 0 10-104.7 18l48 253.15a10.51 10.51 0 004.42 6.73l52.52 35.66a10.55 10.55 0 005.91 1.81 11 11 0 002-.18 10.56 10.56 0 006.72-4.42l35.24-51.93a10.48 10.48 0 001.65-7.88zm-48.36 39.3l-40.22-27.3-48.47-255.4a10.51 10.51 0 00-8-8.28 100.22 100.22 0 1176.05-13 10.51 10.51 0 00-4.71 10.8l14.17 75.84L570 650.83a10.53 10.53 0 002.79 14.6l28 19 5.46 28.57-19.4 28.55a10.52 10.52 0 002.8 14.6l30.91 21 4.91 25.71z" transform="translate(-117.58 -326.73)"/><path class="cls-4" d="M574.14 423.64a17.82 17.82 0 00-9.73-8.46 17.7 17.7 0 00-13.37.51l-.17.08-.77.38a17.81 17.81 0 1016.56 31.54 18.09 18.09 0 002.88-1.89 17.83 17.83 0 004.6-22.16z" transform="translate(-117.58 -326.73)"/><path class="cls-3" d="M580.17 369.15a106.54 106.54 0 00-170.42 92.41 10.49 10.49 0 01-5.59 10l-247.41 130-15.51 49.83 49.12 15.29 24.9-13.09 11.8-37.93a10.52 10.52 0 0113.16-6.91l35 10.9L303 605.09l10.66-34.31a10.51 10.51 0 0113.16-6.92l31.45 9.78 76.45-40.15a10.52 10.52 0 0111.75 1.34 106.57 106.57 0 00159.23-23.12 108 108 0 008.9-17.15 106.56 106.56 0 00-34.38-125.41zm2.47 93.08a39.46 39.46 0 01-6.19 4 38.7 38.7 0 01-18.05 4.47q-1.89 0-3.78-.18a38.82 38.82 0 01-14.31-73c.77-.41 1.45-.74 2.12-1a38.81 38.81 0 0150.3 17.33 38.87 38.87 0 01-10.09 48.38z" transform="translate(-117.58 -326.73)"/><path class="cls-1" d="M628.89 394.88a127.2 127.2 0 00-55.76-54.71 127.54 127.54 0 00-184.63 115.9L143.12 585a10.52 10.52 0 00-5.15 6.18l-19.91 64a10.5 10.5 0 006.94 13.14L188.27 688a10.57 10.57 0 008-.73l32.61-17.14A10.52 10.52 0 00234 664l10-32.05 29.16 9.05a10.49 10.49 0 008-.73l35.41-18.59a10.54 10.54 0 005.15-6.19l8.83-28.43 25.57 8a10.49 10.49 0 008-.73l74.17-38.95a127.59 127.59 0 00185-32.28A129.47 129.47 0 00634 502.52a127.26 127.26 0 00-5.11-107.64zm-14.34 99.68a108 108 0 01-8.9 17.15 106.55 106.55 0 01-159.23 23.12 10.52 10.52 0 00-11.75-1.34l-76.45 40.15-31.45-9.78a10.51 10.51 0 00-13.16 6.92L303 605.09l-27.7 14.55-35-10.9a10.52 10.52 0 00-13.16 6.91l-11.8 37.93-24.9 13.09-49.12-15.29 15.51-49.83 247.41-130a10.49 10.49 0 005.59-10 106.56 106.56 0 01170.42-92.41 106.56 106.56 0 0134.38 125.41z" transform="translate(-117.58 -326.73)"/><path class="cls-1" d="M592.73 413.86a38.81 38.81 0 00-50.3-17.33c-.67.29-1.35.62-2.12 1a38.82 38.82 0 0014.31 73q1.89.18 3.78.18a38.7 38.7 0 0018.05-4.47 39.46 39.46 0 006.19-4 38.87 38.87 0 0010.1-48.35zm-23.19 31.94a18.09 18.09 0 01-2.88 1.89 17.81 17.81 0 11-16.56-31.54l.77-.38.17-.08a17.81 17.81 0 0118.5 30.11z" transform="translate(-117.58 -326.73)"/><path class="cls-1" d="M741.08 432.19a86.41 86.41 0 00-11.37-1.31 85.26 85.26 0 00-11.63.17l-.69.07a76.3 76.3 0 00-120.59-17 72.15 72.15 0 00-20.26 42.73A28.13 28.13 0 01556.6 452l-.56-.41a93.16 93.16 0 0123.69-49.93 96.34 96.34 0 0174.08-30.76 98.19 98.19 0 0125 4.14 97 97 0 0162.27 57.15z" transform="translate(-117.58 -326.73)"/><path class="cls-3" d="M829.79 593.61a4.48 4.48 0 01-1.18 3.69l-17.8 18.9a4.5 4.5 0 01-6.9-.41l-15.47-21a17.25 17.25 0 01-11.9-4.73 17.41 17.41 0 1129.35-13l21.79 13.3a4.48 4.48 0 012.11 3.25z" transform="translate(-117.58 -326.73)"/></svg>