<?xml version="1.0" encoding="utf-8"?>
<!-- Generator: Adobe Illustrator 22.1.0, SVG Export Plug-In . SVG Version: 6.00 Build 0)  -->
<svg version="1.1" id="Layer_1" xmlns="http://www.w3.org/2000/svg" xmlns:xlink="http://www.w3.org/1999/xlink" x="0px" y="0px"
	 viewBox="0 0 240 50" style="enable-background:new 0 0 240 50;" xml:space="preserve">
<style type="text/css">
	.st0{fill:#005480;}
	.st1{fill:#14C7F5;}
</style>
<g>
	<path class="st0" d="M178.2,22.4c-5.2,0-9.8,3.7-9.8,10c0,6.3,4.6,10,9.8,10c5.2,0,9.8-3.7,9.8-10
		C187.9,26.1,183.4,22.4,178.2,22.4z M178.2,38.2c-3.3,0-5.4-2.5-5.4-5.9c0-3.4,2.1-5.9,5.4-5.9c3.4,0,5.3,2.5,5.3,5.9
		C183.5,35.7,181.5,38.2,178.2,38.2z"/>
	<path class="st0" d="M200.5,22.4c-5.2,0-9.8,3.7-9.8,10c0,6.3,4.6,10,9.8,10c5.2,0,9.8-3.7,9.8-10
		C210.3,26.1,205.7,22.4,200.5,22.4z M200.5,38.2c-3.3,0-5.4-2.5-5.4-5.9c0-3.4,2.1-5.9,5.4-5.9c3.4,0,5.3,2.5,5.3,5.9
		C205.8,35.7,203.9,38.2,200.5,38.2z"/>
	<path class="st0" d="M54.2,26.6l-2.4-0.4c-2.9-0.6-4-1.5-4-3.3c0-1.9,1.8-3.2,4.4-3.2c2.8,0,4.7,0.8,6.6,2.5c0.6,0.5,1,0.3,1-0.4
		v-3.7c0-0.4-0.1-0.7-0.5-1c-1.9-1.2-4.1-1.8-7-1.8c-5.4,0-9,3-9,7.5c0,4.5,2.3,6.9,7.8,7.8l2.4,0.3c3,0.5,4.4,1.5,4.4,3.5
		c0,2.2-2.2,3.7-5.5,3.7c-3.3,0-5.9-1.4-8.2-4.1c-0.5-0.6-1-0.4-1,0.3v4.1c0,0.4,0.1,0.7,0.4,1c1.9,1.7,5,2.9,8.7,2.9
		c6.1,0,10.1-3.1,10.1-8C62.4,30.1,59.8,27.7,54.2,26.6z"/>
	<path class="st0" d="M159.4,31.4c3.9-0.7,6.4-3.4,6.4-7.7c0-5-3.6-7.9-8.8-7.9h-9.2c-0.5,0-0.8,0.3-0.8,0.8v24.5
		c0,0.5,0.3,0.8,0.8,0.8h3c0.5,0,0.8-0.3,0.8-0.8v-21h5.5c2.2,0,4,1.3,4,3.6c0,2.3-1.8,3.6-4,3.6H154c-0.5,0-0.8,0.3-0.8,0.8v2
		c0,0.4,0.1,0.7,0.4,1l8.5,10.3c0.3,0.3,0.6,0.5,1,0.5h4.1c0.7,0,0.9-0.5,0.4-1L159.4,31.4z"/>
	<path class="st0" d="M233,22.4c-2.2,0-4.2,0.8-5.5,2.5c-0.7-1.3-2.5-2.5-4.7-2.5c-1.8,0-3.4,0.6-4.3,1.8v-0.7
		c0-0.4-0.3-0.7-0.8-0.7h-2.7c-0.5,0-0.8,0.3-0.8,0.8v17.5c0,0.5,0.3,0.8,0.8,0.8h2.7c0.5,0,0.8-0.3,0.8-0.8V28.2
		c0.7-1.2,1.9-1.8,3.1-1.8c1.7,0,3.1,1.1,3.1,3.1v11.6c0,0.5,0.3,0.8,0.8,0.8h2.8c0.5,0,0.8-0.3,0.8-0.8V28.3
		c0.7-1.2,1.9-1.8,3.1-1.8c1.9,0,3.2,1,3.2,3.1v11.6c0,0.5,0.3,0.8,0.8,0.8h2.8c0.5,0,0.8-0.3,0.8-0.8V28.9
		C239.6,25,236.9,22.4,233,22.4z"/>
	<path class="st0" d="M122,22.5c-0.5-0.1-1.1-0.1-1.7-0.1c-2.3,0-4.1,0.9-5,2.4v-1.2c0-0.5-0.3-0.8-0.8-0.8h-2.7
		c-0.5,0-0.8,0.3-0.8,0.8v17.5c0,0.5,0.3,0.8,0.8,0.8h2.7c0.5,0,0.8-0.3,0.8-0.8V29.7c0.9-1.6,2.1-3.1,4.9-3.1
		c0.5,0,1.1,0.1,1.6,0.2c0.6,0.1,0.9-0.1,0.9-0.7v-2.7C122.6,23,122.4,22.6,122,22.5z"/>
	<path class="st0" d="M105.3,22.8h-2.8c-0.5,0-0.8,0.3-0.8,0.8V24c-1.2-1-2.9-1.6-5-1.6c-5.8,0-9.5,4.1-9.5,10c0,5.9,3.6,10,9.6,10
		c2.1,0,3.8-0.7,4.9-1.7v0.6c0,0.4,0.3,0.6,0.8,0.6h2.8c0.5,0,0.8-0.3,0.8-0.8V23.6C106.1,23.1,105.8,22.8,105.3,22.8z M101.7,36.1
		c-1,1.3-2.6,2.2-4.6,2.2c-3.2,0-5.4-2.5-5.4-5.9c0-3.4,2.2-5.9,5.4-5.9c2,0,3.6,0.8,4.6,2.2V36.1z"/>
	<path class="st0" d="M75.1,22.4c-2.1,0-3.8,0.6-5,1.6v-0.6c0-0.4-0.3-0.6-0.8-0.6h-2.7c-0.5,0-0.8,0.3-0.8,0.8v24.9
		c0,0.5,0.3,0.8,0.8,0.8h2.7c0.5,0,0.8-0.3,0.8-0.8v-7.9c1.1,1,2.8,1.7,4.9,1.7c5.9,0,9.6-4.1,9.6-10C84.5,26.5,80.8,22.4,75.1,22.4
		z M74.7,38.2c-2,0-3.7-0.8-4.6-2.2v-7.4c1-1.3,2.6-2.2,4.6-2.2c3.2,0,5.4,2.5,5.4,5.9C80.1,35.7,77.9,38.2,74.7,38.2z"/>
	<path class="st0" d="M141.8,35c-1.9,1.9-4.3,3.2-7.2,3.2c-1.6,0-3-0.4-4-1.3l11.2-7.6c0.4-0.3,0.5-0.6,0.4-1.1
		c-1.5-4.1-4.7-5.8-8.5-5.8c-5.6,0-9.6,3.9-9.6,9.4c0,6.7,4.2,10.6,10.5,10.6c3.4,0,6-1.2,7.8-2.6c0.3-0.3,0.4-0.6,0.4-1v-3.4
		C142.7,34.6,142.3,34.4,141.8,35z M128.4,31.7c0-3.1,2.2-5.3,5.2-5.3c1.2,0,2.6,0.3,3.4,1.5l-8.4,5.7
		C128.4,33,128.4,32.4,128.4,31.7z"/>
	<path class="st1" d="M30.1,16.6L16.1,5.1c-0.4-0.3-0.7-0.3-1.1,0L1.1,16.6c-0.3,0.3-0.5,0.6-0.5,1v23.5c0,0.5,0.3,0.8,0.8,0.8h28.3
		c0.5,0,0.8-0.3,0.8-0.8V17.6C30.6,17.2,30.4,16.9,30.1,16.6z M26,38H5.2V27.2c0.7-1.5,2.1-2.4,4-2.4c2.3,0,3.7,1.4,4.4,3.8
		c1.2,4.3,4,6.6,8,6.6c1.9,0,3.4-0.4,4.5-1.2V38z M26,28.6c-0.7,1.5-2.1,2.4-4,2.4c-2.4,0-3.8-1.4-4.4-3.8c-1.1-4.4-3.9-6.7-8-6.7
		c-1.9,0-3.4,0.4-4.5,1.2v-2.6l10.4-8.7L26,19.1V28.6z"/>
</g>
</svg>
