<svg width="164" height="20" xmlns="http://www.w3.org/2000/svg" xmlns:xlink="http://www.w3.org/1999/xlink"><defs><path id="a" d="M.205.042h10.342v15.221H.205z"/></defs><g fill="none" fill-rule="evenodd"><path d="M.23 14.2a.727.727 0 0 1-.23-.563v-2.148c0-.417.271-.522.542-.188 1.272 1.523 2.753 2.294 4.545 2.294 1.877 0 3.108-.834 3.108-2.148 0-1.147-.793-1.772-2.523-2.043l-1.314-.209C1.376 8.715.104 7.445.104 4.941c0-2.522 1.981-4.19 4.942-4.19 1.585 0 2.836.354 3.878 1.021a.64.64 0 0 1 .292.564V4.19c0 .396-.25.5-.563.23-1.042-.96-2.106-1.418-3.628-1.418-1.522 0-2.543.77-2.543 1.938 0 1.023.687 1.627 2.293 1.94l1.313.25c3.066.584 4.483 1.939 4.483 4.316 0 2.67-2.147 4.4-5.484 4.4-2.063 0-3.752-.668-4.858-1.647M20.641 10.259c0-1.919-1.272-3.378-3.065-3.378-1.188 0-2.106.459-2.648 1.21v4.336c.542.751 1.46 1.21 2.648 1.21 1.793 0 3.065-1.46 3.065-3.378m2.335 0c0 3.252-1.98 5.588-5.275 5.588-1.23 0-2.148-.397-2.773-.98v4.44c0 .293-.167.46-.458.46h-1.377c-.292 0-.459-.167-.459-.46V5.38c0-.291.167-.458.459-.458h1.377c.291 0 .458.125.458.355v.354c.667-.563 1.626-.96 2.857-.96 3.21 0 5.191 2.336 5.191 5.589M26.75 9.862c0 .397.04.751.125 1.106l4.774-3.232c-.438-.751-1.25-.938-1.898-.938-1.792 0-3.002 1.272-3.002 3.064m7.507 1.898c.291-.313.542-.23.542.188v1.834c0 .23-.063.396-.25.564-.939.792-2.46 1.5-4.317 1.5-3.46 0-5.754-2.21-5.754-5.963 0-3.023 2.272-5.212 5.274-5.212 2.002 0 3.796.792 4.692 3.065.104.27.042.458-.187.625l-6.401 4.358c.646.584 1.48.897 2.46.897 1.605 0 2.919-.751 3.94-1.856M38.508 9.862c0 .397.041.751.125 1.106l4.774-3.232c-.437-.751-1.25-.938-1.897-.938-1.793 0-3.002 1.272-3.002 3.064m7.506 1.898c.292-.313.542-.23.542.188v1.834c0 .23-.063.396-.25.564-.939.792-2.46 1.5-4.316 1.5-3.461 0-5.755-2.21-5.755-5.963 0-3.023 2.273-5.212 5.275-5.212 2.002 0 3.795.792 4.692 3.065.104.27.042.458-.188.625l-6.401 4.358c.646.584 1.48.897 2.46.897 1.605 0 2.92-.751 3.941-1.856M56.042 8.09c-.543-.75-1.46-1.209-2.649-1.209-1.792 0-3.065 1.46-3.065 3.378 0 1.918 1.273 3.377 3.065 3.377 1.19 0 2.106-.458 2.649-1.209V8.09zM56.5 0h1.376c.292 0 .459.166.459.459v14.68c0 .29-.167.457-.459.457H56.5c-.292 0-.458-.146-.458-.375v-.354c-.626.583-1.544.98-2.774.98-3.294 0-5.275-2.336-5.275-5.588 0-3.253 1.98-5.588 5.192-5.588 1.23 0 2.19.395 2.857.959V.459c0-.293.166-.459.458-.459zM69.927 3.253h-6.505v3.711a4.914 4.914 0 0 1 1.397-.187c.667 0 1.126.125 1.564.25.375.105.75.208 1.251.208.542 0 1.063-.062 1.73-.25.313-.104.522.042.522.375v1.293c0 .25-.126.438-.376.521a6.252 6.252 0 0 1-1.876.272 4.542 4.542 0 0 1-1.501-.23c-.376-.125-.73-.188-1.273-.188-.625 0-1.084.084-1.438.292v5.818c0 .292-.167.458-.459.458h-1.46c-.292 0-.458-.166-.458-.458V1.459c0-.291.166-.458.459-.458h8.423c.292 0 .459.167.459.458v1.335c0 .292-.167.459-.459.459M72.428 12.677V.46c0-.293.167-.459.458-.459h1.377c.292 0 .458.166.458.46v11.905c0 .917.46 1.334 1.293 1.334.25 0 .584-.021.96-.084.312-.062.5.084.5.397v1.168c0 .27-.125.437-.397.5a5.244 5.244 0 0 1-1.397.166c-2.084 0-3.252-1.125-3.252-3.169M86.168 12.427V8.09c-.542-.75-1.46-1.21-2.648-1.21-1.793 0-3.065 1.46-3.065 3.379 0 1.918 1.272 3.378 3.065 3.378 1.189 0 2.106-.459 2.648-1.21m.458-7.506h1.377c.292 0 .458.167.458.458v9.759c0 .292-.166.458-.458.458h-1.377c-.291 0-.458-.146-.458-.375v-.354c-.625.583-1.543.98-2.773.98-3.295 0-5.275-2.336-5.275-5.588 0-3.253 1.98-5.588 5.192-5.588 1.23 0 2.189.396 2.856.959v-.354c0-.23.167-.355.458-.355M95.675 13.7c.25 0 .583-.022.96-.084.311-.063.499.083.499.396v1.168c0 .27-.125.438-.396.5a5.25 5.25 0 0 1-1.397.167c-2.085 0-3.252-1.127-3.252-3.17V7.32l-.939.167c-.292.041-.5-.084-.542-.376l-.188-1.126c-.042-.292.084-.5.376-.542l1.293-.23V2.356c0-.291.166-.459.458-.459h1.376c.293 0 .459.168.459.46v2.46l2.064-.376c.292-.062.5.084.542.376l.189 1.126c.041.292-.085.5-.377.542l-2.418.438v5.442c0 .917.459 1.334 1.293 1.334M99.344 15.138V5.379c0-.292.167-.458.459-.458h1.355c.291 0 .459.146.459.417v.417c.52-.75 1.501-1.084 2.44-1.084 1.313 0 2.293.73 2.626 1.522.75-1.022 1.877-1.522 3.086-1.522 2.106 0 3.67 1.438 3.67 3.586v6.88c0 .293-.167.46-.459.46h-1.376c-.292 0-.459-.167-.459-.46V8.55c0-1.147-.73-1.731-1.793-1.731-.709 0-1.46.396-1.814 1.168v7.152c0 .292-.166.458-.459.458h-1.376c-.292 0-.458-.166-.458-.458v-6.59c0-1.063-.835-1.73-1.773-1.73-.709 0-1.48.396-1.834 1.168v7.152c0 .292-.167.458-.46.458h-1.375c-.292 0-.46-.166-.46-.458M123.445 12.427V8.09c-.542-.75-1.46-1.21-2.647-1.21-1.794 0-3.065 1.46-3.065 3.379 0 1.918 1.271 3.378 3.065 3.378 1.187 0 2.105-.459 2.647-1.21m.46-7.506h1.375c.292 0 .46.167.46.458v9.759c0 .292-.168.458-.46.458h-1.376c-.292 0-.459-.146-.459-.375v-.354c-.625.583-1.543.98-2.773.98-3.294 0-5.275-2.336-5.275-5.588 0-3.253 1.981-5.588 5.192-5.588 1.23 0 2.189.396 2.856.959v-.354c0-.23.167-.355.46-.355M132.952 13.7c.25 0 .584-.022.96-.084.312-.063.5.083.5.396v1.168c0 .27-.126.438-.396.5a5.25 5.25 0 0 1-1.398.167c-2.085 0-3.252-1.127-3.252-3.17V7.32l-.938.167c-.293.041-.5-.084-.542-.376l-.189-1.126c-.041-.292.085-.5.376-.542l1.293-.23V2.356c0-.291.167-.459.458-.459h1.376c.293 0 .46.168.46.46v2.46l2.063-.376c.293-.062.5.084.542.376l.189 1.126c.041.292-.085.5-.376.542l-2.419.438v5.442c0 .917.459 1.334 1.293 1.334M136.954 15.138V5.379c0-.292.167-.458.46-.458h1.375c.292 0 .46.166.46.458v9.759c0 .292-.168.458-.46.458h-1.376c-.292 0-.459-.166-.459-.458m-.604-13.115c0-.96.792-1.752 1.752-1.752s1.751.792 1.751 1.752c0 .959-.792 1.75-1.751 1.75-.96 0-1.752-.791-1.752-1.75M151.403 8.82v6.318c0 .292-.166.458-.459.458h-1.375c-.292 0-.46-.166-.46-.458V9.112c0-1.564-.896-2.294-2.272-2.294-1.168 0-2.086.605-2.585 1.69v6.63c0 .292-.167.458-.46.458h-1.375c-.292 0-.459-.166-.459-.458V5.379c0-.291.167-.458.46-.458h1.354c.292 0 .459.167.459.458v.626c.583-.793 1.668-1.334 3.002-1.334 2.607 0 4.17 1.542 4.17 4.149" fill="#005480"/><g transform="translate(153.158 4.629)"><mask id="b" fill="#fff"><use xlink:href="#a"/></mask><path d="M8.254 3.462c-.542-.75-1.46-1.21-2.648-1.21-1.793 0-3.065 1.46-3.065 3.274S3.813 8.8 5.606 8.8c1.189 0 2.106-.459 2.648-1.21V3.463zm.459-3.17h1.375c.293 0 .46.167.46.46v9.945c0 2.836-2.024 4.566-5.38 4.566-1.523 0-2.898-.312-3.858-1.105a.677.677 0 0 1-.25-.563v-1.564c0-.396.25-.5.563-.25a5.539 5.539 0 0 0 3.544 1.272c1.94 0 3.087-.834 3.087-2.356v-.667c-.626.583-1.543.98-2.774.98-3.294 0-5.275-2.336-5.275-5.484C.205 2.377 2.186.042 5.397.042c1.23 0 2.189.396 2.857.96V.646c0-.23.167-.354.459-.354z" fill="#005480" mask="url(#b)"/></g></g></svg>