<svg data-name="Layer 1" xmlns="http://www.w3.org/2000/svg" viewBox="0 0 899.25 477.91"><path d="M729.32 0H173.81a9.9 9.9 0 00-1.23.08h558a9.9 9.9 0 00-1.26-.08zm137.77 54.91c7.61-8 12.29-10.53 19.5-10.53a21.29 21.29 0 017.8 1.36c2.93 1.17 4.88 0 4.88-3.12V30.53a4.64 4.64 0 00-3.32-4.87 37.28 37.28 0 00-9.36-1.17c-13.45 0-25 4.68-36.46 17-3.94 4.14-7.09 6.82-10.22 8.43v-39.8a10 10 0 00-10-10h-746a10 10 0 00-10 10v22.17a49.91 49.91 0 00-5.23-.26c-13.46 0-25 4.68-36.47 17-7.6 8-12.28 10.53-19.5 10.53a21.33 21.33 0 01-7.8-1.36c-2.92-1.17-4.88 0-4.88 3.12v12.09a4.64 4.64 0 003.32 4.87 37.34 37.34 0 009.36 1.17c13.46 0 25-4.68 36.47-17 7.6-8 12.28-10.53 19.5-10.53a21.84 21.84 0 015.23.57v41.66a49.91 49.91 0 00-5.23-.26c-13.46 0-25 4.68-36.47 17-7.6 8-12.28 10.53-19.5 10.53a21.13 21.13 0 01-7.8-1.37c-2.92-1.17-4.88 0-4.88 3.12v12.09a4.66 4.66 0 003.32 4.88 37.34 37.34 0 009.36 1.17c13.46 0 25-4.68 36.47-17 7.6-8 12.28-10.53 19.5-10.53a21.84 21.84 0 015.23.57v41.27a49.91 49.91 0 00-5.23-.26c-13.46 0-25 4.68-36.47 17-7.6 8-12.28 10.53-19.5 10.53a21.12 21.12 0 01-7.8-1.36c-2.92-1.17-4.88 0-4.88 3.12v12.09a4.66 4.66 0 003.32 4.88 37.34 37.34 0 009.36 1.17c13.46 0 25-4.68 36.47-17 7.6-8 12.28-10.53 19.5-10.53a21.84 21.84 0 015.23.57v41.67a49.91 49.91 0 00-5.23-.26c-13.46 0-25 4.68-36.47 17-7.6 8-12.28 10.53-19.5 10.53a21.33 21.33 0 01-7.8-1.36c-2.92-1.17-4.88 0-4.88 3.12v12.09a4.64 4.64 0 003.32 4.87 37.34 37.34 0 009.36 1.17c13.46 0 25-4.68 36.47-17 7.6-8 12.28-10.53 19.5-10.53a21.84 21.84 0 015.23.57v41.26a49.91 49.91 0 00-5.23-.26c-13.46 0-25 4.68-36.47 17-7.6 8-12.28 10.53-19.5 10.53a21.13 21.13 0 01-7.8-1.37c-2.92-1.17-4.88 0-4.88 3.12V320a4.66 4.66 0 003.32 4.88 37.34 37.34 0 009.33 1.12c13.46 0 25-4.68 36.47-17 7.6-8 12.28-10.53 19.5-10.53a21.84 21.84 0 015.23.57v41.67a49.91 49.91 0 00-5.23-.26c-13.46 0-25 4.68-36.47 17-7.6 8-12.28 10.54-19.5 10.54a21.13 21.13 0 01-7.8-1.37c-2.92-1.17-4.88 0-4.88 3.12v12.09a4.66 4.66 0 003.32 4.88 37.34 37.34 0 009.36 1.17c13.46 0 25-4.68 36.47-17 7.6-8 12.28-10.53 19.5-10.53a21.84 21.84 0 015.23.57v41.27a49.91 49.91 0 00-5.23-.26c-13.46 0-25 4.68-36.47 17-7.6 8-12.28 10.53-19.5 10.53a21.33 21.33 0 01-7.8-1.36c-2.92-1.17-4.88 0-4.88 3.12v12.09a4.64 4.64 0 003.32 4.87 37.34 37.34 0 009.36 1.17c13.46 0 25-4.68 36.47-17 7.6-8 12.28-10.53 19.5-10.53a21.84 21.84 0 015.23.57v45.46a10 10 0 0010 10h746a10 10 0 0010-10V441c9.64-1.82 18.41-6.77 27.18-16.13 7.61-8 12.29-10.53 19.5-10.53a21.29 21.29 0 017.8 1.36c2.93 1.17 4.88 0 4.88-3.12v-12.05a4.64 4.64 0 00-3.32-4.87 37.28 37.28 0 00-9.36-1.17c-13.45 0-25 4.68-36.46 17-3.94 4.14-7.09 6.82-10.22 8.43v-40.7c9.64-1.82 18.41-6.77 27.18-16.14 7.61-8 12.29-10.53 19.5-10.53a21.29 21.29 0 017.8 1.36c2.93 1.18 4.88 0 4.88-3.12v-12.13a4.64 4.64 0 00-3.32-4.87 37.28 37.28 0 00-9.36-1.17c-13.45 0-25 4.68-36.46 17-3.94 4.14-7.09 6.82-10.22 8.43v-40.3c9.64-1.82 18.41-6.77 27.18-16.14 7.61-8 12.29-10.53 19.5-10.53a21.1 21.1 0 017.8 1.37c2.93 1.17 4.88 0 4.88-3.12V277.2a4.66 4.66 0 00-3.32-4.88 37.28 37.28 0 00-9.36-1.17c-13.45 0-25 4.68-36.46 17-3.94 4.14-7.09 6.81-10.22 8.43v-40.74c9.64-1.82 18.41-6.77 27.18-16.13 7.61-8 12.29-10.53 19.5-10.53a21.29 21.29 0 017.8 1.36c2.93 1.17 4.88 0 4.88-3.12v-12.09a4.64 4.64 0 00-3.32-4.87 37.28 37.28 0 00-9.36-1.17c-13.45 0-25 4.68-36.46 17-3.94 4.14-7.09 6.82-10.22 8.43v-40.3c9.64-1.82 18.41-6.77 27.18-16.14 7.61-8 12.29-10.53 19.5-10.53a21.1 21.1 0 017.8 1.37c2.93 1.17 4.88 0 4.88-3.13v-12.13a4.64 4.64 0 00-3.32-4.87 37.28 37.28 0 00-9.36-1.17c-13.45 0-25 4.68-36.46 17-3.94 4.14-7.09 6.82-10.22 8.43v-40.7c9.64-1.82 18.41-6.77 27.18-16.14 7.61-8 12.29-10.53 19.5-10.53a21.1 21.1 0 017.8 1.37c2.93 1.17 4.88 0 4.88-3.12V92a4.66 4.66 0 00-3.32-4.88 37.28 37.28 0 00-9.36-1.17c-13.45 0-25 4.68-36.46 17-3.94 4.14-7.09 6.81-10.22 8.43V71c9.65-1.78 18.42-6.73 27.21-16.09zm-703.26 403H93.88V20.08h69.93zm555.49-.91H183.81V20h535.51zm100.57.87h-80.57V20.08h80.57z" fill="#005480"/><path d="M781.97 195.42a28.9 28.9 0 00.89-7.13V180a27.37 27.37 0 00-9.19-20.7 29 29 0 001.38-8.88v-8.33a28.13 28.13 0 00-1.64-9.54 28.37 28.37 0 009.45-21.28v-8.37a27 27 0 00-33.06-26.7l-52.58 11.17a28.86 28.86 0 00-11.14 5 28.3 28.3 0 00-11.77 0l-10.15 2.16a29.32 29.32 0 00-20.43 15.72l-8.56 16.33-4.54-6.73a27.84 27.84 0 00-29.46-11.93l-10.15 2.16a28.43 28.43 0 00-19.8 15.39c-12.13-5.79-26.59-7.23-41.9-4a80.51 80.51 0 00-40.36 21.61c-.49-.28-1-.54-1.51-.78-11.48-5.37-26-6.41-41.94-3-19.4 4.13-36 14.08-48.1 28.79a81.28 81.28 0 00-11.9 19.61v-.35a27 27 0 00-33.06-26.7l-9.11 1.93a28.82 28.82 0 00-9.44 3.83 28.4 28.4 0 00-10.09.32l-52.58 11.18a29.21 29.21 0 00-7.81 2.89 28.74 28.74 0 00-8.33.54l-10 2.13a28.84 28.84 0 00-21.32 18.28 27.57 27.57 0 00-26.31-8.16l-7.55 1.61a28.84 28.84 0 00-21.32 18.28 27.54 27.54 0 00-26.32-8.16l-10 2.13a27.62 27.62 0 00-20.85 36.15c.06.18.12.36.19.54l28.48 79.25c.26.72.54 1.43.84 2.12a27.31 27.31 0 00-10.3 21.58v8.07a25 25 0 0033.1 24.19 48.35 48.35 0 0029.36 9.86 56.88 56.88 0 0011.77-1.28c14-3 25.86-10.42 36.11-22.71 11.49 7.54 24.44 9.84 38.6 6.83 14-3 25.85-10.42 36.11-22.71 11.48 7.54 24.44 9.84 38.6 6.83s25.85-10.42 36.1-22.71c11.49 7.54 24.44 9.84 38.6 6.83s25.85-10.42 36.11-22.71c11.49 7.54 24.44 9.84 38.6 6.83s25.85-10.41 36.11-22.7c11.48 7.54 24.44 9.83 38.59 6.83s25.86-10.42 36.11-22.71c11.49 7.54 24.44 9.84 38.6 6.83s25.85-10.42 36.11-22.71c11.48 7.54 24.43 9.84 38.6 6.83 14.84-3.16 27.25-11.32 37.92-24.95.28-.36.54-.68.77-1a26 26 0 0016.34-5.94 26.35 26.35 0 009.39-20.4v-8.07a26.13 26.13 0 00-10.26-21zM240.09 361.79zm74.7-15.88zM389.48 330z" fill="#14c8f6"/><path d="M250.27 207.93l10-2.13c2.08-.44 3 .54 2.34 2.76l-28.63 91.6a4 4 0 01-3.25 3l-8.57 1.84c-1.69.36-2.74-.07-3.26-1.65l-20-58-20 66.48a3.9 3.9 0 01-3.26 3l-8.59 1.83c-1.56.33-2.73-.07-3.25-1.65l-28.71-79.34c-.65-1.94.26-3.31 2.34-3.75l10-2.13c1.69-.36 2.74.07 3.26 1.65l20.56 59.8 20.56-68.54a3.9 3.9 0 013.26-3l7.55-1.6c1.69-.36 2.73.07 3.25 1.65l20.56 59.8L247.02 211a3.91 3.91 0 013.25-3.07zm23.3 83.3v-85.39a3.35 3.35 0 012.86-3.47l52.58-11.17c1.82-.39 2.87.43 2.87 2.25v8.33a3.35 3.35 0 01-2.87 3.47l-40.6 8.63v23.43l32.79-7c1.83-.39 2.87.43 2.87 2.26v8.33a3.35 3.35 0 01-2.87 3.47l-32.79 7v25.51l40.6-8.63c1.82-.39 2.87.43 2.87 2.25v8.33a3.36 3.36 0 01-2.87 3.48l-52.58 11.17c-1.82.39-2.86-.43-2.86-2.25zm72.1-15.33v-85.38a3.34 3.34 0 012.87-3.47l9.11-1.94c1.82-.39 2.86.43 2.86 2.25v74.19L400.6 253c1.82-.38 2.86.44 2.86 2.26v8.33a3.35 3.35 0 01-2.86 3.47l-52.06 11.07c-1.83.41-2.87-.41-2.87-2.23zm58.18-55.06c0-28.24 18.74-51.1 46.85-57.07 10.55-2.24 19.66-1.84 26.16 1.21a3.3 3.3 0 011.7 3.15v10.8c0 2.48-1.44 3.43-3.39 2.15-7-4.36-15.49-5.16-25-3.14-18.74 4-31.23 19.91-31.23 39.7s12.75 30.34 31.88 26.28c10.94-2.33 18.88-6.62 28.38-16.06 2-2 3.51-1.39 3.51.95v10a4.84 4.84 0 01-1.3 3.53c-8.07 8-17.44 12.82-30.59 15.61-28.23 6.05-46.97-8.86-46.97-37.11zm86.29-18.34c0-28.24 17.7-50.88 44.38-56.55s44.38 9.44 44.38 37.69-17.7 50.87-44.38 56.55-44.38-9.44-44.38-37.69zm73.67-15.65c0-19.79-11.72-30.58-29.29-26.84s-29.28 19.5-29.28 39.28 11.71 30.57 29.28 26.84 29.29-19.5 29.29-39.28zm29.54 36.41V138a3.35 3.35 0 012.86-3.47l10.16-2.16c1.56-.33 2.6 0 3.38 1.24l28.11 41.66 28.11-53.61a4.5 4.5 0 013.39-2.68l10.15-2.15c1.82-.39 2.86.43 2.86 2.25v85.25a3.35 3.35 0 01-2.86 3.48l-9.11 1.93c-1.82.39-2.86-.43-2.86-2.25v-61.7l-27.6 52.07c-1.17 2.21-2.73 2.41-3.9.83l-27.85-40.28v61.69a3.34 3.34 0 01-2.87 3.47l-9.11 1.94c-1.82.39-2.86-.43-2.86-2.25zm106.21-22.58V115.3a3.34 3.34 0 012.86-3.47L755 100.65c1.82-.39 2.86.43 2.86 2.25v8.33a3.35 3.35 0 01-2.86 3.48l-40.61 8.63v23.43l32.8-7c1.82-.39 2.86.43 2.86 2.25v8.33a3.34 3.34 0 01-2.86 3.47l-32.8 7v25.52L755 177.7c1.82-.38 2.86.44 2.86 2.26v8.33a3.35 3.35 0 01-2.86 3.47l-52.58 11.18c-1.82.38-2.86-.44-2.86-2.26zm66.97 13a24.57 24.57 0 00-6.25.54c-9 1.91-16.66 6.67-24.33 16.5-5.08 6.42-8.2 8.77-13 9.8s-7.94 0-13-4.27c-7.67-6.56-15.35-8-24.33-6.15-9 1.92-16.62 6.68-24.29 16.49-5.08 6.41-8.2 8.77-13 9.79s-7.94 0-13-4.26c-7.68-6.56-15.36-8.06-24.34-6.15-9 1.92-16.63 6.67-24.3 16.49-5.07 6.41-8.2 8.77-13 9.79s-7.94 0-13-4.26c-7.68-6.56-15.36-8.06-24.34-6.15-9 1.92-16.63 6.67-24.29 16.49-5.08 6.41-8.2 8.77-13 9.79s-7.94 0-13-4.26c-7.67-6.55-15.33-8-24.28-6.16h-.06c-9 1.91-16.66 6.67-24.34 16.5-5.08 6.41-8.2 8.77-13 9.79s-7.94 0-13-4.26c-7.68-6.57-15.36-8.06-24.34-6.15-9 1.92-16.63 6.67-24.3 16.49-5.07 6.41-8.2 8.77-13 9.79s-7.94 0-13-4.26c-7.66-6.55-15.32-8-24.28-6.16h-.37c-9 1.91-16.66 6.66-24.34 16.5-5.08 6.41-8.2 8.77-13 9.79s-7.94 0-13-4.26c-7.67-6.55-15.33-8-24.28-6.16h-.06c-9 1.91-16.66 6.66-24.34 16.49-5.08 6.42-8.2 8.78-13 9.8s-7.93 0-13-4.26c-7.68-6.57-15.36-8.06-24.34-6.15a28.42 28.42 0 00-6.25 2.11 4 4 0 00-2.21 3.72v8.07c0 2.08 1.3 2.59 3.25 1.39a16.86 16.86 0 015.21-2c4.82-1 7.94 0 13 4.26 7.68 6.57 15.35 8.06 24.33 6.15s16.66-6.66 24.34-16.49c3.42-4.32 5.95-6.79 8.71-8.26a1.55 1.55 0 01.22-.12l.36-.17a17.16 17.16 0 012.31-.89h.17c.41-.12.82-.23 1.25-.32q.62-.14 1.2-.21h.2a13.72 13.72 0 012.3-.1h.57c2.76.3 5.29 1.7 8.71 4.56 7.68 6.57 15.36 8.06 24.34 6.15s16.66-6.66 24.34-16.49c3.42-4.32 5.95-6.8 8.72-8.27l.2-.11.37-.17a15.44 15.44 0 012.31-.88h.16c.42-.12.83-.22 1.25-.31q.6-.13 1.2-.21h.19a13.76 13.76 0 012.3-.1h.57c2.77.3 5.3 1.7 8.72 4.57 7.68 6.56 15.36 8.05 24.34 6.15s16.66-6.67 24.34-16.5c3.42-4.33 6-6.8 8.72-8.27l.2-.11.36-.17a15.86 15.86 0 012.31-.88h.18c.4-.12.8-.22 1.22-.31.42-.09.84-.17 1.25-.22h.17a13.91 13.91 0 012.32-.1h.58c2.75.3 5.28 1.7 8.7 4.56 7.67 6.56 15.35 8.06 24.33 6.15s16.66-6.67 24.34-16.5c3.42-4.31 5.95-6.79 8.71-8.26l.22-.12.36-.17a15.86 15.86 0 012.31-.88h.17c.41-.12.82-.22 1.25-.31l1.2-.21h.19a13.88 13.88 0 012.31-.1h.57c2.76.29 5.29 1.69 8.71 4.56 7.68 6.56 15.36 8.06 24.34 6.15s16.66-6.67 24.34-16.5c3.42-4.32 6-6.8 8.72-8.27l.2-.11.37-.17a15.32 15.32 0 012.3-.88h.18a16.752 16.752 0 012.47-.53h.17a13 13 0 012.32-.11h.58c2.76.3 5.29 1.7 8.7 4.56 7.68 6.57 15.36 8.06 24.34 6.15s16.66-6.67 24.34-16.5c3.42-4.32 6-6.8 8.72-8.27l.2-.11.36-.17a15.44 15.44 0 012.31-.88h.18c.4-.11.8-.22 1.22-.31.42-.09.84-.16 1.25-.22h.17a13.85 13.85 0 012.31-.11h.59c2.75.3 5.28 1.7 8.69 4.56 7.68 6.57 15.36 8.06 24.34 6.15s16.66-6.67 24.34-16.5c3.42-4.32 6-6.79 8.72-8.26l.21-.12.36-.17a16.61 16.61 0 012.31-.88h.18c.4-.11.8-.22 1.21-.3.42-.09.84-.16 1.25-.22h.16a13 13 0 012.32-.1h.58c2.76.3 5.29 1.7 8.7 4.56 7.68 6.57 15.36 8.06 24.34 6.15s16.66-6.66 24.34-16.5c5.07-6.41 8.2-8.77 13-9.79a13.56 13.56 0 015.21-.2c2 .37 3.25-.69 3.25-2.77v-8.07c.12-1.74-.53-2.77-2.09-2.96z" fill="#fff"/></svg>